<svg xmlns="http://www.w3.org/2000/svg" width="20" height="20" viewBox="0 0 20 20" fill="none">
  <path fill-rule="evenodd" clip-rule="evenodd" d="M6.1 19.2125C7.31667 19.7375 8.61667 20 10 20C11.3833 20 12.6833 19.7375 13.9 19.2125C15.1167 18.6875 16.175 17.975 17.075 17.075C17.975 16.175 18.6875 15.1167 19.2125 13.9C19.7375 12.6833 20 11.3833 20 10C20 8.61667 19.7375 7.31667 19.2125 6.1C18.6875 4.88333 17.975 3.825 17.075 2.925C16.175 2.025 15.1167 1.3125 13.9 0.7875C12.6833 0.2625 11.3833 0 10 0C8.61667 0 7.31667 0.2625 6.1 0.7875C4.88333 1.3125 3.825 2.025 2.925 2.925C2.025 3.825 1.3125 4.88333 0.7875 6.1C0.2625 7.31667 0 8.61667 0 10C0 11.3833 0.2625 12.6833 0.7875 13.9C1.3125 15.1167 2.025 16.175 2.925 17.075C3.825 17.975 4.88333 18.6875 6.1 19.2125ZM15.675 15.675C14.125 17.225 12.2333 18 10 18C7.76667 18 5.875 17.225 4.325 15.675C2.775 14.125 2 12.2333 2 10C2 7.76667 2.775 5.875 4.325 4.325C5.875 2.775 7.76667 2 10 2C12.2333 2 14.125 2.775 15.675 4.325C17.225 5.875 18 7.76667 18 10C18 12.2333 17.225 14.125 15.675 15.675Z" fill="url(#paint0_linear_611_2008)"/>
  <path d="M10 13L14 9H6L10 13Z" fill="white"/>
  <defs>
    <!-- <linearGradient id="paint0_linear_611_2008" x1="0" y1="10" x2="20" y2="10" gradientUnits="userSpaceOnUse">
      <stop stop-color="#131313"/>
      <stop offset="1" stop-color="#1E81AE"/>
    </linearGradient> -->
  </defs>
</svg>